<?xml version="1.0" standalone="no"?><!DOCTYPE svg PUBLIC "-//W3C//DTD SVG 1.1//EN" "http://www.w3.org/Graphics/SVG/1.1/DTD/svg11.dtd"><svg t="1765702916653" class="icon" viewBox="0 0 1024 1024" version="1.1" xmlns="http://www.w3.org/2000/svg" p-id="3789" xmlns:xlink="http://www.w3.org/1999/xlink" width="200" height="200"><path d="M902.384941 257.114353H245.338353a98.454588 98.454588 0 0 0-98.454588 98.424471V746.315294a98.484706 98.484706 0 0 0 98.484706 98.454588h57.675294v141.914353c0 13.914353 16.745412 20.841412 26.593882 11.023059l152.937412-152.937412h419.84a98.484706 98.484706 0 0 0 98.42447-98.484706V355.568941a98.454588 98.454588 0 0 0-98.454588-98.42447" fill="#FF7E50" p-id="3790"></path><path d="M98.424471 0h657.046588a98.454588 98.454588 0 0 1 98.484706 98.424471v390.806588a98.424471 98.424471 0 0 1-98.484706 98.42447H697.825882v141.914353a15.570824 15.570824 0 0 1-26.593882 11.023059l-152.997647-152.937412H98.424471A98.454588 98.454588 0 0 1 0 489.231059V98.424471A98.484706 98.484706 0 0 1 98.484706 0" fill="#F9D11F" p-id="3791"></path><path d="M671.232 740.592941a15.600941 15.600941 0 0 0 26.624-11.023059v-141.94447h57.645176a98.394353 98.394353 0 0 0 98.424471-98.424471V257.084235H245.338353a98.424471 98.424471 0 0 0-98.424471 98.424471v232.116706h371.350589l152.967529 152.997647z" fill="#ED4042" p-id="3792"></path><path d="M303.043765 468.269176h394.812235V358.098824H303.043765z" fill="#FFFFFF" p-id="3793"></path></svg>