<?xml version="1.0" standalone="no"?><!DOCTYPE svg PUBLIC "-//W3C//DTD SVG 1.1//EN" "http://www.w3.org/Graphics/SVG/1.1/DTD/svg11.dtd"><svg t="1765703904380" class="icon" viewBox="0 0 1024 1024" version="1.1" xmlns="http://www.w3.org/2000/svg" p-id="9286" xmlns:xlink="http://www.w3.org/1999/xlink" width="200" height="200"><path d="M512 160c160 0 288 118.4 288 265.6v9.6c-3.2 86.4-57.6 185.6-144 288-41.6 48-86.4 92.8-134.4 131.2l-9.6 9.6-9.6-9.6-12.8-9.6c-44.8-38.4-83.2-80-121.6-121.6-86.4-99.2-137.6-198.4-144-288v-9.6c0-144 124.8-262.4 281.6-265.6h6.4z m0 128c-80 0-144 60.8-144 137.6s64 137.6 144 137.6 144-60.8 144-137.6S592 288 512 288z m0 57.6c44.8 0 83.2 35.2 83.2 76.8s-38.4 76.8-83.2 76.8-83.2-32-83.2-73.6 38.4-80 83.2-80z" fill="#FC9637" p-id="9287"></path></svg>