<svg t="1765604540749" class="icon" viewBox="0 0 1707 1024" version="1.1" xmlns="http://www.w3.org/2000/svg" p-id="9746">
  <path d="M1352.182953 42.832948l-4.250182-25.626098-25.626098-4.250182c-230.384874-51.252197-482.145664 51.252197-674.028889 277.261883-98.129206-4.250182-183.507865 29.87628-264.511336 102.379388l-42.626827 38.376645 221.88451 145.006214c-29.87628 51.252197-12.750546 128.005486 42.626827 183.507865 55.502379 51.252197 132.255668 72.503107 183.507864 42.626827l145.006215 221.88451 34.126463-38.376645c76.75329-85.378659 110.879752-166.382131 106.62957-268.761519 226.134692-196.258411 328.51408-448.019202 277.261883-674.028888zM1046.91987 676.11009L1013.79345 704.486306V751.863337c4.750204 71.003043-29.751275 121.505208-67.627898 178.257639L804.284471 717.236852 735.031503 753.11339c-18.875809 9.500407-61.502636 0-94.629056-33.12642-37.876623-33.12642-42.626827-75.628241-33.12642-89.878852l36.126549-69.002957-208.133921-141.881081c56.752432-37.876623 113.504865-63.252711 179.757704-63.252711h42.626827l33.12642-37.876623c179.757704-212.884124 416.267841-305.88811 624.526767-272.761691 33.12642 208.258926-60.252582 451.01933-268.386503 630.777035z" fill="#333333" p-id="9747"></path>
  <path d="M1236.678003 124.711457C1099.797136 102.960525 873.287428 235.091188 755.03236 375.097189l-21.750932 24.876066h-28.0012c-43.501864 0-80.878466 16.625713-118.255069 41.626784l136.880867 93.379002-23.751018 45.376945c-6.250268 9.375402-3.125134 37.376602 21.750932 59.127534 21.750932 21.750932 49.752132 28.0012 62.252668 21.750932l45.50195-23.626012 93.379002 140.006c24.876066-37.376602 47.502036-70.628027 44.376902-117.255025v-31.126334l21.750933-18.625799c137.005872-118.255068 269.386546-348.889953 247.510608-485.895825z" fill="#61C6F1" p-id="9748"></path>
  <path d="M520.272298 793.615126c-29.87628 29.87628-51.252197 128.005486-51.252196 128.005486s93.879024-17.125734 128.005486-51.252196c25.626098-25.626098 29.87628-64.002743 12.750546-85.37866-25.501093-21.250911-63.877738-16.875723-89.503836 8.62537zM1043.044704 292.218637c-25.251082-14.500621-56.252411-14.500621-81.378488 0-25.251082 14.500621-40.751747 41.376773-40.751747 70.503021 0 29.126248 15.500664 56.0024 40.751747 70.503022 25.126077 14.500621 56.252411 14.500621 81.378488 0 25.251082-14.500621 40.751747-41.376773 40.751746-70.503022 0-29.001243-15.500664-55.877395-40.751746-70.503021z" fill="#333333" p-id="9749"></path>
</svg>
